<svg width="33" height="32" viewBox="0 0 33 32" fill="none" xmlns="http://www.w3.org/2000/svg">
<path d="M3.16663 16.5333C3.16663 12.5107 3.16663 10.4994 4.42832 9.24968C5.69001 8 7.72068 8 11.782 8H13.2179C17.2792 8 19.3099 8 20.5716 9.24968C21.8333 10.4994 21.8333 12.5107 21.8333 16.5333V20.8C21.8333 24.8227 21.8333 26.834 20.5716 28.0837C19.3099 29.3333 17.2792 29.3333 13.2179 29.3333H11.782C7.72068 29.3333 5.69001 29.3333 4.42832 28.0837C3.16663 26.834 3.16663 24.8227 3.16663 20.8V16.5333Z" stroke="#18181B" stroke-width="1.5" stroke-linejoin="round"/>
<path d="M21.2167 21.3327H22.4476C25.9293 21.3327 27.6701 21.3327 28.7517 20.2392C29.8333 19.1457 29.8333 17.3858 29.8333 13.866V10.1327C29.8333 6.61286 29.8333 4.85295 28.7517 3.75948C27.6701 2.66602 25.9293 2.66602 22.4476 2.66602H21.2167C17.7351 2.66602 15.9943 2.66602 14.9127 3.75948C13.9669 4.71569 13.8482 6.18154 13.8333 8.88824" stroke="#18181B" stroke-width="1.5" stroke-linejoin="round"/>
<path d="M8.5 16H12.5M8.5 22.6667H15.1667" stroke="#18181B" stroke-width="1.5" stroke-linecap="round"/>
<path d="M14.5 4L19.8333 8.66667" stroke="#18181B" stroke-width="1.5" stroke-linejoin="round"/>
</svg>
