<svg width="33" height="32" viewBox="0 0 33 32" fill="none" xmlns="http://www.w3.org/2000/svg">
<path d="M3.64748 19.4609C3.14666 16.6989 2.89624 15.3179 3.60775 14.382C3.65519 14.3196 3.70536 14.2593 3.7581 14.2014C4.54911 13.332 5.94894 13.332 8.74862 13.332H24.2513C27.051 13.332 28.4508 13.332 29.2418 14.2014C29.2946 14.2593 29.3447 14.3196 29.3922 14.382C30.1037 15.3179 29.8533 16.6989 29.3524 19.4609C28.6323 23.4323 28.2723 25.418 26.9144 26.6377C26.8218 26.7209 26.7263 26.8008 26.6281 26.8773C25.1884 27.9987 23.1756 27.9987 19.1502 27.9987H13.8498C9.82427 27.9987 7.81152 27.9987 6.37178 26.8773C6.27358 26.8008 6.17809 26.7209 6.08547 26.6377C4.72763 25.418 4.36758 23.4323 3.64748 19.4609Z" stroke="#18181B" stroke-width="1.5"/>
<path d="M11.193 6.81416H21.5758C23.3211 6.81416 25.5076 6.56368 26.6282 8.19683C27.1666 8.98153 27.1666 11.148 27.1666 13.3327M16.5175 6.81416L15.4994 4.83127C15.1421 4.13533 14.8079 3.29309 14.0773 2.9119C13.606 2.66602 13.038 2.66602 11.9018 2.66602C9.23454 2.66602 7.90089 2.66602 7.01032 3.39334C5.52079 4.60983 5.86847 7.10664 5.86847 8.80074V13.3327" stroke="#18181B" stroke-width="1.5" stroke-linecap="round"/>
</svg>
