<svg width="33" height="32" viewBox="0 0 33 32" fill="none" xmlns="http://www.w3.org/2000/svg">
<path d="M3.8335 10H29.1668" stroke="#18181B" stroke-width="1.5" stroke-linejoin="round"/>
<path d="M23.1669 3.33398L19.1669 10.0007" stroke="#18181B" stroke-width="1.5" stroke-linejoin="round"/>
<path d="M13.8335 3.33398L9.8335 10.0007" stroke="#18181B" stroke-width="1.5" stroke-linejoin="round"/>
<path d="M3.83337 16.0007C3.83337 10.0295 3.83337 7.04397 5.68836 5.18897C7.54335 3.33398 10.5289 3.33398 16.5 3.33398C22.4712 3.33398 25.4567 3.33398 27.3117 5.18897C29.1667 7.04397 29.1667 10.0295 29.1667 16.0007C29.1667 21.9718 29.1667 24.9573 27.3117 26.8123C25.4567 28.6673 22.4712 28.6673 16.5 28.6673C10.5289 28.6673 7.54335 28.6673 5.68836 26.8123C3.83337 24.9573 3.83337 21.9718 3.83337 16.0007Z" stroke="#18181B" stroke-width="1.5"/>
<path d="M20.4375 19.861C20.2355 20.6967 19.281 21.2872 17.3719 22.4682C15.5263 23.6099 14.6035 24.1807 13.8599 23.9513C13.5525 23.8564 13.2723 23.6762 13.0464 23.428C12.5 22.8277 12.5 21.6634 12.5 19.3346C12.5 17.0059 12.5 15.8415 13.0464 15.2412C13.2723 14.993 13.5525 14.8129 13.8599 14.718C14.6035 14.4886 15.5263 15.0594 17.3719 16.2011C19.281 17.3821 20.2355 17.9726 20.4375 18.8083C20.5208 19.1532 20.5208 19.5161 20.4375 19.861Z" stroke="#18181B" stroke-width="1.5" stroke-linejoin="round"/>
</svg>
